<svg width="40" height="40" version="1.1" viewBox="0 0 10.583 10.583" xmlns="http://www.w3.org/2000/svg">
 <path d="m2.6626 9.649c-0.93483-0.11809-1.7316-0.75651-2.057-1.6482-0.2293-0.62829-0.188-1.3806 0.1085-1.9766 0.18233-0.36652 0.18455-0.36893 2.2669-2.4561 1.0868-1.0894 2.0012-1.994 2.0319-2.0102 0.08414-0.044495 0.23666-0.037369 0.32142 0.015018 0.11958 0.073907 0.17817 0.24903 0.12814 0.38303-0.01218 0.032611-0.89209 0.93047-2.0018 2.0426-1.089 1.0914-2.0143 2.0325-2.0563 2.0913-0.04193 0.058817-0.11348 0.1864-0.15899 0.28352-0.35002 0.74693-0.18453 1.6037 0.41996 2.1742 0.38002 0.35866 0.83651 0.52381 1.3796 0.49913 0.3626-0.01648 0.66101-0.11692 0.98185-0.33048 0.13492-0.08981 5.0019-4.9334 5.1767-5.1518 0.1956-0.24442 0.27705-0.47232 0.27705-0.77515 0-0.41852-0.19226-0.78153-0.53552-1.0111-0.22126-0.14798-0.39351-0.19811-0.68077-0.19811-0.26966 0-0.45397 0.050583-0.65789 0.18055-0.17948 0.11439-4.1247 4.0598-4.1896 4.1898-0.18705 0.3748 0.07885 0.80724 0.49635 0.80724 0.24831 0 0.21045 0.032301 1.6226-1.3845 0.86984-0.8727 1.3081-1.2982 1.3643-1.3246 0.10673-0.050069 0.17865-0.049577 0.27957 0.00191 0.13666 0.069721 0.20153 0.21311 0.163 0.36033-0.01907 0.072866-0.19398 0.25622-1.3381 1.4027-0.8282 0.82989-1.3622 1.3493-1.4402 1.4009-0.57972 0.38342-1.4038 0.16299-1.7172-0.45934-0.1788-0.35505-0.17323-0.7945 0.01433-1.1308 0.05039-0.090359 0.53266-0.58528 2.1345-2.1905 1.1382-1.1406 2.1252-2.1139 2.1935-2.1628 0.37695-0.27062 0.84287-0.39575 1.2811-0.34407 0.77238 0.091092 1.3916 0.61388 1.6063 1.3561 0.0411 0.14213 0.04783 0.21184 0.04783 0.49609s-0.0067 0.35397-0.04783 0.49609c-0.06281 0.21717-0.18649 0.46156-0.32429 0.64079-0.06119 0.079582-1.2489 1.2801-2.6394 2.6678-1.9453 1.9414-2.5651 2.5481-2.6885 2.6317-0.52413 0.35497-1.1555 0.51042-1.762 0.43381z" fill="#bbb" stroke-width=".020671"/>
</svg>
