<svg width="60" height="60" version="1.1" viewBox="0 0 15.875 15.875" xmlns="http://www.w3.org/2000/svg">
 <path d="m11.385 3.3616c-0.28817 0-0.57656 0.11044-0.79737 0.33125l-6.8952 6.8952c-0.44162 0.44162-0.44162 1.1526 0 1.5942 0.44162 0.44162 1.1526 0.44162 1.5942 0l6.8952-6.8952c0.44162-0.44162 0.44162-1.1526 0-1.5942-0.22081-0.22081-0.50868-0.33125-0.79685-0.33125zm5.16e-4 0.29146c0.214-2.899e-4 0.4275 0.081265 0.59118 0.24495 0.32736 0.32736 0.32677 0.85559-1e-3 1.1834l-6.0663 6.0663-1.1824-1.1818 6.0663-6.0663c0.1639-0.1639 0.37822-0.24621 0.59221-0.2465zm-6.8389 6.4931 1.1818 1.1824-0.64751 0.6475c-0.32781 0.3278-0.85603 0.3284-1.1834 1e-3 -0.32736-0.32736-0.32626-0.85558 0.00155-1.1834z" fill="#fff"/>
</svg>
