<svg width="40" height="40" version="1.1" viewBox="0 0 10.583 10.583" xmlns="http://www.w3.org/2000/svg">
 <path d="m1.3887 1.0059c0.03484 0.00932 1.8798 0.9217 4.0879 2.0273 2.6255 1.3147 3.5742 1.7869 3.9199 1.9961 0.09134 0.055255 0.13241 0.088218 0.15234 0.10938 0.015812 0.016784 0.00703 0.00522 0.027344 0.082031 0.017486 0.066103 0.017486 0.076478 0 0.14258-0.020394 0.077094-0.011498 0.065261-0.027344 0.082031-0.019983 0.021149-0.060499 0.053931-0.15234 0.10938-0.34763 0.20986-1.3027 0.68469-3.9453 2.0078-2.6709 1.3373-3.6294 1.8194-4.0059 1.9688-0.099372 0.039411-0.14861 0.052603-0.17578 0.054687-0.025548 0.00196-0.00889-0.00123-0.080078-0.035156-0.11921-0.05682-0.19547-0.17737-0.19531-0.29883 1.022e-5 -0.007911 0.28674-0.90882 0.64453-1.9824l0.66211-1.9863-0.66406-1.9961c-0.42184-1.2682-0.57938-1.7411-0.61914-1.9453-0.02309-0.11861-0.020964-0.088126 0.021484-0.16992 0.065885-0.12696 0.22354-0.19973 0.34961-0.16602zm0.68945 1.0801c-0.16619 0-0.094306 0.16554-0.078125 0.2168 0.010868 0.034429 0.025652 0.079275 0.042969 0.13281 0.028861 0.08923 0.065846 0.20352 0.10938 0.33594 0.072555 0.22072 0.16392 0.4918 0.26172 0.78516l0.46875 1.4062 1.2988 0.00391c1.191 0.0055 1.2013 0.00851 1.2559 0.037109 0.080544 0.042255 0.14498 0.12251 0.16992 0.2168 0.035444 0.134-0.03473 0.2865-0.16992 0.35742-0.054535 0.028607-0.064785 0.03161-1.2559 0.037109l-1.2988 0.00586-0.46875 1.4043c-0.097793 0.29333-0.18916 0.566-0.26172 0.78711-0.043531 0.13265-0.080513 0.24649-0.10938 0.33594-0.017318 0.05367-0.0321 0.098286-0.042969 0.13281-0.016181 0.051401-0.088648 0.2168 0.078125 0.2168 0.045083 0 1.4468-0.70684 3.1465-1.5566 1.5298-0.76486 2.808-1.4086 3.0508-1.5352 0.026747-0.013946 0.097656-0.034282 0.097656-0.11523 0-0.080194-0.072238-0.10207-0.10156-0.11719-0.26554-0.13689-1.6544-0.8349-3.0449-1.5312-1.545-0.7737-3.1001-1.5566-3.1484-1.5566z" fill="#bbb" stroke-width=".020671"/>
</svg>
