<svg width="60" height="60" version="1.1" viewBox="0 0 60 60" xmlns="http://www.w3.org/2000/svg" xmlns:xlink="http://www.w3.org/1999/xlink">
 <path d="m0 0 0.24089 1.7104 1.6341 0.79537 4.4531 1.4786v0.23438l-6.3281-1.6406v0.23438l4.9219 1.6406-4.9219-0.9375v0.23438l3.5156 1.1719-3.5156-0.46875v0.23438l2.1094 0.70312v0.23438l-2.1094-0.23438v0.23438l0.70313 0.23438-0.70313 0.70312 4.2188-1.3348 2.8125-0.85631 3.75 1.1024 3.0469 1.5574-6.7969-2.0255-3.9844 1.0889-3.0469 1.4053 7.0312-2.1794 3.5156 0.98037 3.2812 1.6677-6.5625-2.0568-2.8125 0.65124-4.4531 1.6399v0.23438l7.0312-2.1911 3.75 1.0974 3.0469 1.5625-6.7969-2.0255-3.75 1.0549-3.2812 1.4393 7.0312-2.1779 3.75 1.0841 3.0469 1.5625c-2.1326-0.58209-4.3369-1.8755-6.5625-2.0171-2.2332-0.14215-5.2583 1.3617-7.2656 2.2515v0.23438l7.0312-2.1911 3.75 1.0999 3.0469 1.56-6.7969-2.0656-7.0312 2.0656v5.1562l6.7969-2.1094-6.7969 2.8125v0.23438l6.7969-2.1094-6.7969 2.8125v0.23438l6.7969-2.1094-6.7969 2.8125v0.23438l6.7969-2.1094-6.7969 2.8125v0.23438l6.7969-2.1094-4.6875 2.0287-1.7336 0.71993-0.3758 2.4076v6.5625l0.3758 2.558 1.7336 0.735 4.2188 1.3945v0.23438l-6.3281-1.6406v0.23438l4.9219 1.6406-4.9219-0.9375v0.23438l3.5156 1.1719-3.5156-0.46875v0.23438l2.1094 0.70312v0.23438l-2.1094-0.23438v0.23438l0.70313 0.23438-0.70313 0.70312 4.2188-1.3348 2.8125-0.85641 3.75 1.1025 3.0469 1.5574-6.7969-2.0255-3.9844 1.0889-3.0469 1.4053 7.0312-2.1795 3.5156 0.98039 3.2812 1.6678-6.5625-2.0566-2.8125 0.65109-4.4531 1.6399v0.23438l7.0312-2.1912 3.75 1.0973 3.0469 1.5626-6.7969-2.0255-3.75 1.0549-3.2812 1.4393 7.0312-2.1778 3.75 1.084 3.0469 1.5626c-2.1326-0.58219-4.3369-1.8755-6.5625-2.017-2.2332-0.14227-5.2582 1.3615-7.2656 2.2514v0.23438l7.0312-2.1912 3.75 1.0999 3.0469 1.56-6.7969-2.0655-7.0312 2.0655v5.1562l6.7969-2.1094-6.7969 2.8125v0.23438l6.7969-2.1094-6.7969 2.8125v0.23438l6.7969-2.1094-6.7969 2.8125v0.23438l6.7969-2.1094-6.7969 2.8125v0.23438l6.7969-2.1094-4.6875 2.0288-1.7336 0.72-0.3758 2.6419v7.0312l6.7969-2.1094-4.4531 1.875v0.23438l4.4531-1.1719-1.6406 0.9375v0.23438h2.1094v-3.0469h0.9375v3.0469h0.46875l-0.23979-2.9189-1.1665-1.0655c2.4296 0.56391 2.5781 1.7109 2.5781 3.9844h0.23437l-0.24089-3.3511-2.5716-1.5708c1.1301 0.26156 3.1174 0.58172 3.7435 1.6718 0.49718 0.86578 0.24089 2.2849 0.24089 3.2501h0.23438l-0.24089-3.8198-3.9779-2.0395c1.3216 0.27633 4.1521 0.70992 4.9154 1.9395 0.59674 0.96117 0.24089 2.8233 0.24089 3.9199h0.46875l-0.24089-4.2886-5.3841-2.5083 4.4531 1.4004 1.8685 0.9968 0.24089 4.3997 7.0312-2.1094-4.4531 1.875v0.23438l4.4531-1.1719-1.6406 0.9375v0.23438h2.1094l-0.07343-2.2786-1.8016-0.9968-4.7805-1.766-0.61669-4.4484-1.8685-0.86742-4.3786-1.5616-0.54326-2.6123v-6.5625l0.9375 0.23438v6.0938l0.3758 2.4136 6.2797 2.6252 0.51722 4.238 1.7336 0.95766 5.1562 1.4843v3.0469h0.46875l-0.24089-2.8823-1.6341-0.78961-4.7805-1.8708-0.61669-4.4152-1.8685-0.82922-4.3786-1.6523-0.54326-2.3262v-5.625c1.9568 0.98695 1.3831 5.6285 0.9375 7.5l4.9219 1.8743 2.1029 1.0364 0.61669 4.3538 4.5461 1.7201 1.6341 0.92438 0.24089 2.9817h0.46875l-0.24094-3.3837-1.6341-0.75773-4.7805-1.8818-0.61669-4.3917-1.6341-0.75797-4.7805-1.8823-0.3758-1.9448v-4.9219c2.2996 1.268 0.15497 4.887 1.4128 6.6448 0.39398 0.55055 1.2596 0.735 1.8685 0.92062 1.3237 0.40383 3.5637 0.69023 4.5461 1.7391 0.87075 0.92977 0.3758 3.5569 0.3758 4.758l4.9219 1.4515 1.8684 1.1578 0.24094 3.2501h0.23438l-0.24094-3.8205-1.6341-0.82734-4.613-1.6434-0.78415-4.5923-1.6341-0.79078-4.613-1.6507-0.54307-1.9092-1.88e-4 -4.2188h0.9375v5.8594l5.1562 1.6523 1.833 0.99656 0.65212 4.4191 6.4145 2.6393 0.24094 3.8864h0.23438l-0.24094-4.2886-1.6341-0.82266-4.613-1.6488-0.78415-4.593-1.6341-0.82266-4.7805-1.7843-0.3758-5.0243h0.9375l0.24089 4.5895 1.8685 0.99586 4.9219 1.4459v4.9219l7.0312 2.1094 0.23438 4.9219h3.2812v-0.23438l-1.4062-0.70312h-0.23438l-1.1719 0.46875c0.84703-1.3645 2.4307-0.12141 3.75-0.35836 2.1145-0.38016 4.2035-1.7803 6.3281-1.9144 1.5844-0.09984 3.7277 0.93633 5.1562 1.5696l-4.9219-1.0186-6.5625 1.9561v0.23438l6.3281-1.7742 3.75 0.83672v0.23438l-3.5156-0.55641-3.75 1.0252v0.23438l4.4531-0.70312 1.4062 0.46875-0.23438 0.23438 3.7498-1.0184 1.4995-0.9218 0.14133-4.1536c1.1445 0.70195 1.4798 3.5107 0.5618 4.5867-0.66727 0.78211-2.1919 0.99844-3.1399 1.2727v0.23438l3.7434-1.2921 0.24094-4.3329c1.137 0.69727 1.4869 3.5048 0.5618 4.5705-0.42774 0.49266-1.1351 0.65461-1.7337 0.82008v0.23438l2.5781-0.70312v-4.4531c1.2595 0.7725 1.5316 4.0809 0.23438 4.9219v0.23438h0.9375v-4.6875c1.7613 0.64758 1.1719 3.1284 1.1719 4.6875h0.46875v-4.2188c1.3814 0.84727 0.9375 2.7802 0.9375 4.2188l6.5625-1.875v0.23438l-4.4531 1.4062v0.23438l4.9219-1.4062-2.1094 1.1719v0.23438h2.3438l-0.24094-1.7105-1.6341-0.79523-4.4531-1.4787v-0.23438l6.3281 1.6406v-0.23438l-4.9219-1.6406 4.9219 0.9375v-0.23438l-3.5156-1.1719 3.5156 0.46875v-0.23438l-2.1094-0.70312v-0.23438l2.1094 0.23438v-0.23438l-0.70312-0.23438 0.70312-0.70312-4.2188 1.3348-2.8125 0.85641-3.75-1.1025-3.0469-1.5574 6.7969 2.0255 3.9844-1.0889 3.0469-1.4053-7.0312 2.1795-3.5156-0.98039-3.2812-1.6678 6.5625 2.0566 2.8125-0.65109 4.4531-1.6399v-0.23438l-7.0312 2.1912-3.75-1.0973-3.0469-1.5626 6.7969 2.0255 3.75-1.0549 3.2812-1.4393-7.0312 2.1778-3.75-1.084-3.0469-1.5626c2.1326 0.58219 4.3369 1.8755 6.5625 2.017 2.2331 0.14227 5.2582-1.3617 7.2656-2.2514v-0.23438l-7.0312 2.1912-3.75-1.0999-3.0469-1.56 6.7969 2.0655 7.0312-2.0655v-5.1562l-6.7969 2.1094 6.7969-2.8125v-0.23438l-6.7969 2.1094 6.7969-2.8125v-0.23438l-6.7969 2.1094 6.7969-2.8125v-0.23438l-6.7969 2.1094 6.7969-2.8125v-0.23438l-6.7969 2.1094 4.6875-2.0288 1.7337-0.72 0.3757-2.4075v-6.5625l-0.3757-2.558-1.7337-0.735-4.2188-1.3945v-0.23438l6.3281 1.6406v-0.23438l-4.9219-1.6406 4.9219 0.9375v-0.23438l-3.5156-1.1719 3.5156 0.46875v-0.23438l-2.1094-0.70312v-0.23438l2.1094 0.23438v-0.23438l-0.70312-0.23438 0.70312-0.70312-4.2188 1.3348-2.8125 0.85641-3.75-1.1025-3.0469-1.5574 6.7969 2.0255 3.9844-1.0889 3.0469-1.4053-7.0312 2.1795-3.5156-0.98039-3.2812-1.6678 6.5625 2.0566 2.8125-0.65112 4.4531-1.6399v-0.23438l-7.0312 2.1912-3.75-1.0974-3.0469-1.5625 6.7969 2.0255 3.75-1.0549 3.2812-1.4393-7.0312 2.1779-3.75-1.0841-3.0469-1.5625c2.1326 0.58209 4.3369 1.8755 6.5625 2.0171 2.2331 0.14215 5.2582-1.3617 7.2656-2.2515v-0.23438l-7.0312 2.1911-3.75-1.0999-3.0469-1.56 6.7969 2.0656 7.0312-2.0656v-5.1562l-6.7969 2.1094 6.7969-2.8125v-0.23438l-6.7969 2.1094 6.7969-2.8125v-0.23438l-6.7969 2.1094 6.7969-2.8125v-0.23438l-6.7969 2.1094 6.7969-2.8125v-0.23438l-6.7969 2.1094 4.6875-2.0287 1.7337-0.71993 0.3757-2.642v-7.0312l-6.7969 2.1094 4.4531-1.875v-0.23438l-4.4531 1.1719 1.6406-0.9375v-0.23438h-2.1094v3.0469h-0.9375v-3.0469h-0.46875l0.23976 2.9188 1.1665 1.0655c-2.4295-0.56395-2.5781-1.7109-2.5781-3.9844h-0.23438l0.24094 3.351 2.5716 1.5708c-1.1302-0.26144-3.1174-0.58177-3.7434-1.6719-0.49734-0.86564-0.24094-2.2847-0.24094-3.25h-0.23438l0.24094 3.8198 3.9778 2.0396c-1.3216-0.27628-4.1522-0.71004-4.9153-1.9394-0.59672-0.96117-0.24094-2.8234-0.24094-3.92h-0.46875l0.24094 4.2885 5.3841 2.5083-4.4531-1.4005-1.8684-0.99663-0.24094-4.3998-7.0312 2.1094 4.4531-1.875v-0.23438l-4.4531 1.1719 1.6406-0.9375v-0.23438h-2.1094l0.07336 2.2786 1.8016 0.99662 4.7805 1.7661 0.61664 4.4484 1.8684 0.86752 4.3786 1.5616 0.54328 2.6123v6.5625l-0.9375-0.23438v-6.0938l-0.3757-2.4135-6.2798-2.6253-0.51703-4.2379-1.7337-0.95759-5.1562-1.4844v-3.0469h-0.46875l0.24094 2.8823 1.6341 0.78959 4.7805 1.8708 0.61664 4.4152 1.8684 0.82936 4.3786 1.6522 0.54328 2.3262v5.625c-1.9568-0.98693-1.383-5.6284-0.9375-7.5l-4.9219-1.8743-2.1028-1.0364-0.61664-4.3537-4.5462-1.7202-1.6341-0.9243-0.24094-2.9818h-0.46875l0.24094 3.3836 1.6341 0.75776 4.7805 1.8819 0.61664 4.3916 1.6341 0.75792 4.7805 1.8824 0.3757 1.9448v4.9219c-2.2997-1.268-0.15492-4.887-1.4128-6.6448-0.39398-0.55059-1.2595-0.73495-1.8684-0.92067-1.3238-0.4038-3.5637-0.69012-4.5462-1.739-0.8707-0.92972-0.3757-3.5568-0.3757-4.758l-4.9219-1.4515-1.8684-1.158-0.24094-3.25h-0.23438l0.24094 3.8205 1.6341 0.82737 4.613 1.6435 0.78422 4.5922 1.6341 0.79085 4.613 1.6508 0.54305 1.9092 2.35e-4 4.2188h-0.9375v-5.8594l-5.1562-1.6524-1.833-0.99663-0.65203-4.4189-6.4146-2.6394-0.24094-3.8864h-0.23438l0.24094 4.2885 1.6341 0.82268 4.613 1.6489 0.78422 4.5929 1.6341 0.82266 4.7805 1.7844 0.3757 5.0242h-0.9375l-0.24094-4.5895-1.8684-0.99591-4.9219-1.4459v-4.9219l-7.0312-2.1094-0.23438-4.9219h-3.2812v0.23438l1.4062 0.70312h0.23438l1.1719-0.46875c-0.84703 1.3646-2.4307 0.12135-3.75 0.35844-2.1145 0.38-4.2035 1.7802-6.3281 1.9143-1.5843 0.09994-3.7278-0.93638-5.1562-1.5696l4.9219 1.0185 6.5625-1.956v-0.23438l-6.3281 1.7743-3.75-0.83677v-0.23438l3.5156 0.55646 3.75-1.0252v-0.23438l-4.4531 0.70312-1.4062-0.46875 0.23438-0.23438-3.7498 1.0183-1.4994 0.92176-0.14142 4.1536c-1.1445-0.70202-1.4798-3.5106-0.5617-4.5868 0.66722-0.78206 2.1918-0.99836 3.1398-1.2726v-0.23438l-3.7435 1.2921-0.24089 4.3329c-1.1369-0.69736-1.4869-3.5048-0.5617-4.5705 0.42764-0.4926 1.1351-0.65459 1.7336-0.82013v-0.23438l-2.5781 0.70312v4.4531c-1.2595-0.77257-1.5316-4.0809-0.23438-4.9219v-0.23438h-0.9375v4.6875c-1.7614-0.64762-1.1719-3.1285-1.1719-4.6875h-0.46875v4.2188c-1.3814-0.84736-0.9375-2.7802-0.9375-4.2188l-6.5625 1.875v-0.23438l4.4531-1.4062v-0.23438l-4.9219 1.4062 2.1094-1.1719v-0.23438h-2.3438m20.156 0v0.23438h1.875l-1.875-0.23438m-13.359 0.46875c-0.52064 1.4962-3.2784 1.845-4.6875 1.875v-0.23438l4.6875-1.6406m38.906 0-2.1094 1.1903-4.2188 0.91906 6.3281-2.1094m14.062 0-0.9375 0.70312v0.23438h0.9375l-3.9778 2.2076-0.38226 4.0554-1.7337 1.0026-5.625 1.4063 6.1868-2.5083 0.51703-4.2234 3.3743-1.4714v-0.23438c-1.0603 0.24528-3.3534 0.59118-3.843 1.6932-0.53274 1.1994 0.39094 2.9456-0.38227 4.0466-0.38672 0.55092-1.2705 0.70111-1.8684 0.90077-1.5959 0.53292-3.7221 1.7357-5.3906 1.3281l6.1868-2.5083 0.51703-4.2242 1.7337-1.029 4.6875-1.3791m-28.359 0.9375c-0.64078 1.093-1.5098 0.74831-2.5781 0.46875v0.23438c0.8843 0.77283 0.54141 2.9456 0.23438 3.9844h0.9375l-0.23438-3.5156 1.6406-0.23438-1.4062 1.4062 1.4062-0.46875-0.70312 0.70312v0.23438l0.70312 0.70312-1.1719-0.70312-0.23438 1.4062 2.5781-0.46875v0.23438l-2.5781 0.70312v0.23438l3.75-0.70312v0.23438l-0.9375 0.23438v0.23438l2.5781-0.23438v0.23438l-5.3906 2.1094c1.8771-0.8321 4.7372-2.1855 6.7969-1.875v0.23438l-5.3906 1.6406v0.23437l6.7969-1.6406v0.23438l-0.9375 0.23438v0.23438l1.1719-0.23438-1.4062 0.9375v0.23437h1.6406v0.23438l-2.8125 0.9375v0.23438l2.8125-0.46875v0.23438l-2.3438 0.70313v0.23438l2.3438-0.46875c-0.39094 0.58716-1.1393 0.96354-1.332 1.6659-0.46453 1.6938 0.74789 3.8266-1.4805 4.4278v0.23438c0.67828-0.12328 1.425-0.28162 1.7337-0.98759 0.5918-1.3543-0.69281-3.815 1.0788-4.403l-0.23438 5.3906-4.9219 1.5685-1.8684 1.074-0.70969 4.3887v0.23438c0.92695 0.81 0.55805 3.3581 0.23438 4.4531l7.5-2.0592 6.5625 1.8248v-0.23438l-5.625-1.875v-0.23438h1.4062v-0.23438l-3.2812 0.70312c0.42961-1.3261 2.4862-1.6856 3.75-1.875v-0.23438l-3.4819 1.068-1.6744 1.2757c0.04031-1.2134 0.44133-1.6552 1.6406-1.875v-0.23438c-0.65672 0.09891-1.4613 0.19898-1.8687 0.80133-0.59156 0.87469-0.14297 1.5649-1.4126 1.7768l0.24094-2.017 4.4466-1.733v-0.23438c-1.2164 0.20932-3.675 0.65109-4.5462 1.5708-0.95859 1.0123 0.25688 2.5812-1.5476 2.8823 0-2.3808 0.05039-3.3994 2.5781-3.9844v-0.23438l-2.8125 0.70312c0 1.263 0.51023 3.5039-0.9375 3.9844 0-1.8314-0.64242-4.2691 1.6406-4.6875v-0.23438c-0.81328-0.05817-1.3971-0.10516-1.6406-0.9375l1.6406 0.9375c1.3273-0.30708 4.3683-0.76102 5.1497-1.9674 0.78094-1.2057-0.34195-3.0681 0.48188-4.2412 0.49125-0.69966 1.7955-0.8775 2.5716-1.057v-0.23438l-2.8125 0.70312c0.87047-1.4279 4.4948-2.2666 6.0938-2.1094v0.23438l-0.9375 0.23438v0.23438l1.4062-0.23438c-0.80883 1.3269-3.4634 1.772-4.9219 2.1094v0.23438l4.9219-1.4062-2.8125 1.4062v0.23438l2.8125-0.70312c-0.60891 0.99893-1.9559 0.8119-2.5716 1.7388-1.0891 1.6393 0.91242 4.1331-1.6472 4.8237v0.23438c2.767-0.73092 0.77297-3.0876 1.8816-4.8568 0.46453-0.74142 1.5497-0.88622 2.3372-1.0026-0.36774 0.61523-1.1334 0.95227-1.3317 1.6659-0.53648 1.9312 0.7493 3.8129-1.7095 4.6402-0.39281 0.13219-0.76992 0.19547-1.1775 0.25641v0.23438c0.98977-0.14625 2.6974-0.39305 3.1399-1.4375 0.57516-1.3583-0.68484-3.8365 1.0788-4.4218v5.3906l-4.9219 1.4062v0.23438l3.75 0.70312v-0.23438l-2.1094-0.70312c1.0233-0.62438 2.2284 0.12562 3.2812 0.46875l-0.46875 0.70312 0.46875 0.9375-1.6406-0.46875v0.23438l1.6406 0.46875c-0.59766 1.1843-1.3828 1.0845-2.5781 0.9375v0.23438l0.70312 0.23438-4.6875-0.91172-3.2812 0.67734v0.23438l3.0469-0.65672 3.5156 0.89109v0.23438l-3.2812-0.45469-2.5781 0.45469v0.23438c1.0118-0.13242 3.9802-1.1374 4.2188 0.46875 1.2816-0.19195 4.4224-0.77953 5.1497-1.9402 0.62648-0.99984 0.24094-3.0082 0.24094-4.1536 1.2244 0.49219 1.4897 3.7999 0.5618 4.7515-0.69094 0.70828-2.2078 0.91312-3.1399 1.1079v0.23438l3.7434-1.4716 0.24094-4.1534c1.2188 0.49008 1.4243 3.5107 0.69773 4.567-0.27352 0.39774-0.73664 0.4732-1.1665 0.58922v0.23438l1.875-0.46875v-4.4531c0.2475 0.06938 0.61805 0.0825 0.76828 0.35156 0.49828 0.8925 0.5318 4.342-0.53391 4.5703v0.23438h0.70312l0.3757 3.3511 2.4368 1.5708-3.7434-1.4714-0.24094-3.4505h-0.23438l0.3757 3.8198 3.843 2.0395-1.6406-0.23438v0.23438l1.6406 0.9375-5.8594-1.6406v0.23438l5.3906 1.6406v0.23438h-1.875v0.23438l0.46875 0.23438-3.9844-0.70312v0.23438l2.5781 0.70312v0.23438l-3.2812-0.46875 0.70312-0.70312v-0.23438l-0.70312-0.70312 4.2188 1.1719v-0.23438c-1.1037-0.22734-2.2275-0.61102-3.2812-1.0155-0.64055-0.24609-1.133-0.66656-0.23438-0.85945v-0.23438c-1.2572-0.81492-0.70312-3.558-0.70312-4.9219l-1.4062 0.23438v0.23438h0.9375l-2.1094 1.1904-4.2188 0.91898v-0.23438l1.1719-0.23438v-0.23438l-1.4062 0.23438c0.75492-1.2384 3.0783-1.672 4.4531-1.875v-0.23438l-4.4531 1.1719 1.6406-0.9375v-0.23438l-1.6406 0.23438v-0.23438h0.70312v-0.23438h-1.875v0.23438h0.70312c-4.69e-4 0.64617-0.18938 1.6209 0.10594 2.213 0.30352 0.60844 1.1803 0.79617 1.7691 0.98742 1.353 0.43922 3.7425 0.66328 4.7805 1.6847 1.4112 1.3889-0.79852 4.1414 1.5511 5.0986 0.45422 0.18516 0.92227 0.25781 1.4027 0.32883l1.6406-1.0938 4.1677-1.4855 0.63164-4.4053 3.4038-1.4529v-0.23438c-1.0603 0.24539-3.3534 0.59109-3.843 1.6934-0.53274 1.1993 0.39094 2.9454-0.38227 4.0465-0.38672 0.55102-1.2705 0.70102-1.8684 0.9007-1.5959 0.53297-3.7221 1.7358-5.3906 1.3282 1.6894-1.2638 4.7459-0.98672 6.1868-2.5083 1.4386-1.5195-0.90703-4.2663 1.782-4.9917v-0.23438l-1.4062 0.23438 1.6406-0.9375v-0.23438l-1.6406 0.23438 1.6406-0.9375v-0.23438l-1.6406 0.23438 0.9375-0.70312v-0.23438l-0.9375 0.23438c0.52055-1.4962 3.2784-1.845 4.6875-1.875v0.23438l-3.75 1.1719v0.23438l5.1562-1.1719v0.23438l-4.4531 1.4062v0.23438l4.9219-1.4062-0.70312 0.70312v0.23438h0.70312l-2.1094 1.1719v0.23438l2.1094-0.46875-0.9375 0.70312v0.23438h0.9375l-3.843 2.0395-0.51703 4.2234-1.968 1.0807-5.1562 1.5626v0.23438l4.2188 1.1719c0.12516-0.92086 1.5138-1.0631 2.3438-1.1719v-0.23438l-4.2188 0.70312v-0.23438l2.1094-0.46875v-0.23438l-3.2812 0.46875v-0.23438c1.4093-0.45867 2.8127-0.93703 4.2188-1.4062 0.63047-0.21047 1.4932-0.36633 1.968-0.86766 0.99305-1.0488-0.04875-2.9988 0.51703-4.2234 0.46852-1.0137 2.621-1.3256 3.6087-1.4714l-2.6433 1.6992-0.40359 4.6289c1.1449-1.511-0.49758-4.1895 1.6441-5.0618 0.45422-0.18516 0.92227-0.25781 1.4027-0.32883l-1.3317 1.6652-0.45023 3.9966-1.7337 0.66633v0.23438c0.80906-0.18727 2.0576-0.37125 2.4368-1.2246 0.60094-1.353-0.6982-3.8105 1.0788-4.4004l-0.14133 4.8567-1.968 1.0807-5.1562 1.5626 0.23438 9.375-0.9375-0.23438v-5.625l-0.24094-2.5254-1.8684-0.99023v0.23438l1.4002 0.63352 0.24047 2.179v5.625l-1.0315-0.73781-0.14039-2.0747 0.23438-4.6875c-1.6291-0.63188-3.2707-1.2211-4.9219-1.7944-0.64266-0.22312-1.6697-0.37078-2.1028-0.94828-1.05-1.3999 0.72984-3.7416-1.1817-4.7555-0.29367-0.15562-0.615-0.17812-0.93422-0.23625v0.23438l1.2659 0.48984 0.75047 4.5345 6.2798 2.4959 0.3757 2.0892v4.9219c-0.95859-0.31805-0.88898-0.95461-1.0043-1.875-0.18398-1.4716 0.26953-3.7261-0.63633-4.9219l0.23438 6.3281h-0.9375c0-1.492 0.65508-4.9788-0.70312-5.8594l0.23438 5.3906h-0.9375l-0.3757-4.5895-2.4368-1.0355v0.23438h0.70312v0.23438l-4.9219 1.4062c0.7943-1.2021 2.8727-1.5635 4.2188-1.875v-0.23438l-4.2188-1.1719v-4.9219l-4.2188-1.1719v0.23438h0.46875v0.23438l-5.3906 2.1094c1.8771-0.83203 4.7372-2.1855 6.7969-1.875v0.23438l-5.3906 1.6406v0.23438l6.7969-1.6406v0.23438l-0.9375 0.23438v0.23438l1.1719-0.23438-1.4062 0.9375v0.23438h1.6406v0.23438l-2.8125 0.9375v0.23438l2.8125-0.46875v0.23438l-2.3438 0.70312v0.23438l2.3438-0.46875c-0.39094 0.58711-1.1393 0.96352-1.332 1.6659-0.46453 1.6938 0.74789 3.8266-1.4805 4.4278v0.23438c0.67828-0.12328 1.425-0.28172 1.7337-0.98766 0.5918-1.3542-0.69281-3.8149 1.0788-4.403l-0.23438 5.3906-4.9219 1.5684-1.8684 1.0741-0.70969 4.3887v0.23438c0.92695 0.81 0.55805 3.3581 0.23438 4.4531l7.5-2.0592 6.5625 1.8248v-0.23438l-5.625-1.875v-0.23438h1.4062v-0.23438l-3.2812 0.70312c0.42961-1.3261 2.4862-1.6856 3.75-1.875v-0.23438l-3.4819 1.068-1.6744 1.2757c0.04031-1.2134 0.44133-1.6552 1.6406-1.875v-0.23438c-0.65672 0.09891-1.4613 0.19898-1.8687 0.80133-0.59156 0.87469-0.14297 1.5649-1.4126 1.7768l0.24094-2.017 4.4466-1.733v-0.23438c-1.2164 0.2093-3.675 0.65109-4.5462 1.5708-0.95859 1.0123 0.25688 2.5812-1.5476 2.8823 0-2.3808 0.05039-3.3994 2.5781-3.9844v-0.23438l-2.8125 0.70312c0 1.263 0.51023 3.5039-0.9375 3.9844 0-1.8314-0.64242-4.2691 1.6406-4.6875v-0.23438c-0.81328-0.05813-1.3971-0.10523-1.6406-0.9375l1.6406 0.9375c1.3273-0.30703 4.3683-0.76102 5.1497-1.9673 0.78094-1.2059-0.34195-3.0682 0.48188-4.2412 0.49125-0.69961 1.7955-0.8775 2.5716-1.057v-0.23438l-2.8125 0.70312c0.87047-1.4278 4.4948-2.2666 6.0938-2.1094v0.23438l-0.9375 0.23438v0.23438l1.4062-0.23438c-0.80883 1.3268-3.4634 1.7719-4.9219 2.1094v0.23438l4.9219-1.4062-2.8125 1.4062v0.23438l2.8125-0.70312c-0.60891 0.99891-1.9559 0.81188-2.5716 1.7388-1.0891 1.6392 0.91242 4.1332-1.6472 4.8237v0.23438c2.767-0.73102 0.77297-3.0877 1.8816-4.8567 0.46453-0.74156 1.5497-0.88617 2.3372-1.0027-0.36774 0.61523-1.1334 0.95227-1.3317 1.6659-0.53648 1.9313 0.7493 3.8128-1.7095 4.6402-0.39281 0.13219-0.76992 0.19547-1.1775 0.25641v0.23438c0.98977-0.14625 2.6974-0.39305 3.1399-1.4374 0.57516-1.3584-0.68484-3.8367 1.0788-4.422v5.3906l-4.9219 1.4062v0.23438l3.75 0.70312v-0.23438l-2.1094-0.70312c1.0233-0.62438 2.2284 0.12562 3.2812 0.46875l-0.46875 0.70312 0.46875 0.9375-1.6406-0.46875v0.23438l1.6406 0.46875c-1.233 2.4429-4.6418-0.22969-6.5625-0.48188-2.0606-0.27023-4.5441 1.4782-6.5625 1.9083-1.3659 0.29133-2.5969-0.44883-3.9844-0.25453 0.64078-1.0931 1.5098-0.74836 2.5781-0.46875v-0.23438c-0.8843-0.77273-0.54141-2.9456-0.23438-3.9844h-0.9375l0.23438 3.5156-1.6406 0.23438 1.4062-1.4062-1.4062 0.46875 0.70312-0.70312v-0.23438l-0.70312-0.70312 1.1719 0.70312 0.23438-1.4062-2.5781 0.46875v-0.23438l2.5781-0.70312v-0.23438l-3.75 0.70312v-0.23438l0.9375-0.23438v-0.23438l-2.5781 0.23438v-0.23438l5.3906-2.1094c-1.8771 0.83203-4.7372 2.1855-6.7969 1.875v-0.23438l5.3906-1.6406v-0.23438l-6.7969 1.6406v-0.23438l0.9375-0.23438v-0.23438l-1.1719 0.23438 1.4062-0.9375v-0.23438h-1.6406v-0.23438l2.8125-0.9375v-0.23438l-2.8125 0.46875v-0.23438l2.3438-0.70312v-0.23438l-2.3438 0.46875c0.39084-0.58711 1.1393-0.96352 1.3319-1.6659 0.46446-1.6938-0.74777-3.8266 1.4806-4.4278v-0.23438c-0.67828 0.12328-1.425 0.28172-1.7336 0.98766-0.59201 1.3542 0.69279 3.8149-1.0789 4.403l0.23438-5.3906 4.9219-1.5684 1.8684-1.0741 0.70969-4.3887v-0.23438c-0.92695-0.81-0.55805-3.3581-0.23438-4.4531l-7.5 2.0592-6.5625-1.8248v0.23438l5.625 1.875v0.23438h-1.4062v0.23438l3.2812-0.70312c-0.42956 1.3261-2.4863 1.6856-3.75 1.875v0.23438l3.482-1.068 1.6743-1.2757c-0.04031 1.2134-0.4414 1.6552-1.6406 1.875v0.23438c0.65677-0.09891 1.4613-0.19898 1.8687-0.80133 0.59156-0.87469 0.14297-1.5649 1.4126-1.7768l-0.24094 2.017-4.4466 1.733v0.23438c1.2164-0.2093 3.675-0.65109 4.5462-1.5708 0.95859-1.0123-0.25688-2.5812 1.5476-2.8823 0 2.3808-0.05039 3.3994-2.5781 3.9844v0.23438l2.8125-0.70312c0-1.263-0.51023-3.5039 0.9375-3.9844 0 1.8314 0.64242 4.2691-1.6406 4.6875v0.23438c0.81328 0.05813 1.3971 0.10523 1.6406 0.9375l-1.6406-0.9375c-1.3273 0.30703-4.3683 0.76102-5.1497 1.9673-0.78098 1.2059 0.34193 3.0682-0.48178 4.2412-0.49127 0.69961-1.7956 0.8775-2.5716 1.057v0.23438l2.8125-0.70312c-0.87042 1.4278-4.4948 2.2666-6.0938 2.1094v-0.23438l0.9375-0.23438v-0.23438l-1.4062 0.23438c0.80885-1.3268 3.4634-1.7719 4.9219-2.1094v-0.23438l-4.9219 1.4062 2.8125-1.4062v-0.23438l-2.8125 0.70312c0.60893-0.99891 1.9558-0.81188 2.5716-1.7388 1.0891-1.6392-0.91256-4.133 1.6471-4.8237v-0.23438c-2.7669 0.73102-0.77288 3.0877-1.8815 4.8567-0.4646 0.74156-1.5496 0.88617-2.3372 1.0027 0.36783-0.61523 1.1335-0.95227 1.3317-1.6659 0.53653-1.9313-0.74925-3.8128 1.7095-4.6402 0.39279-0.13219 0.76985-0.19547 1.1775-0.25641v-0.23438c-0.98977 0.14625-2.6975 0.39305-3.1398 1.4374-0.5753 1.3584 0.6847 3.8367-1.0789 4.422v-5.3906l4.9219-1.4062v-0.23438l-3.75-0.70312v0.23438l2.1094 0.70312c-1.0232 0.62438-2.2284-0.12562-3.2812-0.46875l0.46875-0.70312-0.46875-0.9375 1.6406 0.46875v-0.23438l-1.6406-0.46875c0.5977-1.1843 1.3827-1.0845 2.5781-0.9375v-0.23438l-0.70312-0.23438 4.6875 0.91172 3.2812-0.67734v-0.23438l-3.0469 0.65672-3.5156-0.89109v-0.23438l3.2812 0.45469 2.5781-0.45469v-0.23438c-1.0118 0.13242-3.9802 1.1374-4.2188-0.46875-1.2816 0.19195-4.4225 0.77953-5.1497 1.9402-0.62646 0.99984-0.24089 3.0082-0.24089 4.1536-1.2244-0.49219-1.4897-3.7999-0.5617-4.7515 0.6908-0.70828 2.2076-0.91312 3.1398-1.1079v-0.23438l-3.7435 1.4716-0.24089 4.1534c-1.2188-0.48984-1.4242-3.5107-0.69771-4.567 0.27359-0.39774 0.73669-0.4732 1.1665-0.58922v-0.23438l-1.875 0.46875v4.4531c-0.24748-0.06938-0.61795-0.0825-0.76823-0.35156-0.4984-0.8925-0.53177-4.342 0.53386-4.5703v-0.23438h-0.70312l-0.3758-3.3511-2.4367-1.5708 3.7435 1.4714 0.24089 3.4505h0.23438l-0.3758-3.8198-3.843-2.0395 1.6406 0.23438v-0.23438l-1.6406-0.9375 5.8594 1.6406v-0.23438l-5.3906-1.6406v-0.23438h1.875v-0.23438l-0.46875-0.23438 3.9844 0.70312v-0.23438l-2.5781-0.70312v-0.23438l3.2812 0.46875-0.70312 0.70312v0.23438l0.70312 0.70312-4.2187-1.1719v0.23438c1.1037 0.22723 2.2276 0.61102 3.2812 1.0155 0.64045 0.24609 1.1329 0.66656 0.23438 0.85945v0.23438c1.2571 0.81492 0.70312 3.558 0.70312 4.9219l1.4062-0.23438v-0.23438h-0.9375l2.1094-1.1904 4.2188-0.91898v0.23438l-1.1719 0.23438v0.23438l1.4062-0.23438c-0.75494 1.2384-3.0782 1.672-4.4531 1.875v0.23438l4.4531-1.1719-1.6406 0.9375v0.23438l1.6406-0.23438v0.23438h-0.70312v0.23438h1.875v-0.23438h-0.70312c3.52e-4 -0.64617 0.1894-1.6209-0.10598-2.213-0.30354-0.60844-1.1802-0.79617-1.769-0.98742-1.353-0.43922-3.7424-0.66328-4.7805-1.6847-1.4113-1.3889 0.79847-4.1415-1.5511-5.0986-0.45436-0.18511-0.92241-0.25779-1.4028-0.32878l-1.6406 1.0938-4.1678 1.4854-0.63152 4.4054-3.4039 1.4529v0.23438c1.0602-0.24539 3.3534-0.59109 3.843-1.6934 0.53273-1.1993-0.3908-2.9454 0.38231-4.0465 0.38684-0.55092 1.2706-0.70111 1.8685-0.90077 1.5959-0.53292 3.722-1.7357 5.3906-1.3281-1.6894 1.2638-4.7459 0.98681-6.1867 2.5083-1.4387 1.5194 0.90698 4.2663-1.782 4.9917v0.23438l1.4062-0.23438-1.6406 0.9375v0.23438l1.6406-0.23438-1.6406 0.9375v0.23438l1.6406-0.23438-0.9375 0.70312v0.23438l0.9375-0.23438c-0.52064 1.4962-3.2784 1.845-4.6875 1.875v-0.23438l3.75-1.1719v-0.23438l-5.1562 1.1719v-0.23438l4.4531-1.4062v-0.23438l-4.9219 1.4062 0.70313-0.70312v-0.23438h-0.70313l2.1094-1.1719v-0.23438l-2.1094 0.46875 0.9375-0.70312v-0.23438h-0.9375l3.843-2.0395 0.51722-4.2235 1.968-1.0807 5.1562-1.5625v-0.23438l-4.2188-1.1719c-0.12513 0.92086-1.5139 1.0632-2.3438 1.1719v0.23438l4.2188-0.70312v0.23438l-2.1094 0.46875v0.23438l3.2812-0.46875v0.23438c-1.4094 0.4586-2.8128 0.93703-4.2188 1.4062-0.63042 0.2104-1.4932 0.36638-1.968 0.8677-0.99312 1.0487 0.04863 2.9988-0.51722 4.2234-0.46833 1.0137-2.6209 1.3256-3.6086 1.4714l2.6432-1.6992 0.40364-4.6289c-1.1448 1.5111 0.49756 4.1895-1.6441 5.0618-0.45437 0.18516-0.92242 0.25781-1.4028 0.32883l1.3317-1.6652 0.4503-3.9965 1.7336-0.66642v-0.23438c-0.80902 0.18727-2.0577 0.3712-2.4367 1.2245-0.60105 1.3532 0.69815 3.8106-1.0789 4.4005l0.14142-4.8568 1.968-1.0807 5.1562-1.5625-0.23438-9.375 0.9375 0.23438v5.625l0.24089 2.5255 1.8685 0.99012v-0.23438l-1.4001-0.63349-0.24052-2.179v-5.625l1.0315 0.73784 0.14034 2.0747-0.23438 4.6875c1.6293 0.63192 3.2708 1.221 4.9219 1.7944 0.64256 0.22312 1.6697 0.37076 2.1029 0.94835 1.0499 1.3998-0.7298 3.7415 1.1816 4.7554 0.29376 0.15562 0.61495 0.17812 0.93424 0.23625v-0.23438l-1.2659-0.48984-0.75052-4.5344-6.2797-2.4958-0.3758-2.0893v-4.9219c0.95859 0.31816 0.88908 0.95468 1.0042 1.875 0.18415 1.4717-0.26946 3.7262 0.6364 4.9219l-0.23438-6.3281h0.9375c0 1.4921-0.65506 4.9789 0.70312 5.8594l-0.23438-5.3906h0.9375l0.3758 4.5895 2.4367 1.0355v-0.23438h-0.70312v-0.23438l4.9219-1.4062c-0.7943 1.2021-2.8728 1.5636-4.2188 1.875v0.23438l4.2188 1.1719v4.9219l4.2188 1.1719v-0.23438h-0.46875v-0.23438l5.3906-2.1094c-1.8771 0.8321-4.7372 2.1855-6.7969 1.875v-0.23438l5.3906-1.6406v-0.23438l-6.7969 1.6406v-0.23438l0.9375-0.23438v-0.23438l-1.1719 0.23438 1.4062-0.9375v-0.23438h-1.6406v-0.23438l2.8125-0.9375v-0.23438l-2.8125 0.46875v-0.23438l2.3438-0.70312v-0.23438l-2.3438 0.46875c0.39084-0.58716 1.1393-0.96354 1.3319-1.6659 0.46446-1.6938-0.74777-3.8266 1.4806-4.4278v-0.23438c-0.67828 0.12328-1.425 0.2816-1.7336 0.98759-0.59201 1.3543 0.69279 3.815-1.0789 4.403l0.23438-5.3906 4.9219-1.5685 1.8684-1.074 0.70969-4.3887v-0.23438c-0.92695-0.80998-0.55805-3.3581-0.23438-4.4531l-7.5 2.0593-6.5625-1.8249v0.23438l5.625 1.875v0.23438h-1.4062v0.23438l3.2812-0.70312c-0.42956 1.326-2.4863 1.6857-3.75 1.875v0.23438l3.482-1.0681 1.6743-1.2757c-0.04031 1.2133-0.4414 1.6552-1.6406 1.875v0.23438c0.65674-0.09895 1.4613-0.19903 1.8687-0.80133 0.59156-0.8748 0.14297-1.5649 1.4126-1.7768l-0.24094 2.017-4.4466 1.733v0.23438c1.2164-0.20932 3.675-0.65114 4.5462-1.5708 0.95859-1.0123-0.25688-2.5811 1.5476-2.8823 0 2.3808-0.05039 3.3993-2.5781 3.9844v0.23438l2.8125-0.70312c0-1.2632-0.51023-3.5039 0.9375-3.9844 0 1.8314 0.64242 4.269-1.6406 4.6875v0.23438c0.81328 0.05817 1.3971 0.10514 1.6406 0.9375l-1.6406-0.9375c-1.3273 0.30708-4.3683 0.76102-5.1497 1.9674-0.78101 1.2057 0.34193 3.0681-0.48178 4.2412-0.49127 0.69966-1.7956 0.8775-2.5716 1.057v0.23438l2.8125-0.70312c-0.87042 1.4279-4.4948 2.2666-6.0938 2.1094v-0.23438l0.9375-0.23438v-0.23438l-1.4062 0.23438c0.80885-1.3269 3.4634-1.772 4.9219-2.1094v-0.23438l-4.9219 1.4062 2.8125-1.4062v-0.23438l-2.8125 0.70312c0.60893-0.99893 1.9558-0.8119 2.5716-1.7388 1.0891-1.6393-0.91256-4.1331 1.6471-4.8237v-0.23438c-2.7669 0.73092-0.77288 3.0876-1.8815 4.8568-0.4646 0.74142-1.5496 0.88622-2.3372 1.0026 0.36783-0.61523 1.1335-0.95227 1.3317-1.6659 0.53653-1.9312-0.74925-3.8129 1.7095-4.6401 0.39279-0.13214 0.76985-0.19538 1.1775-0.25643v-0.23438c-0.98977 0.14618-2.6975 0.39305-3.1398 1.4375-0.5753 1.3584 0.6847 3.8365-1.0789 4.4218v-5.3906l4.9219-1.4062v-0.23438l-3.75-0.70312v0.23438l2.1094 0.70312c-1.0232 0.62447-2.2284-0.1256-3.2812-0.46875l0.46875-0.70312-0.46875-0.9375 1.6406 0.46875v-0.23438l-1.6406-0.46875c1.233-2.4429 4.6418 0.22971 6.5625 0.48178 2.0606 0.27042 4.5441-1.478 6.5625-1.9083 1.3659-0.29116 2.5969 0.44884 3.9844 0.25463m-24.609 0-1.6406 1.1719v0.23438l1.6406-0.46875c-0.32009 0.91029-0.98053 0.9158-1.875 0.9375l0.23438-0.46875h-1.6406v-0.23438l3.2812-1.1719m38.906 0c-0.76641 1.2573-3.2904 1.8513-4.6875 1.6406l4.6875-1.6406m12.422 0v0.23438h0.70312l-0.70312-0.23438m-12.422 0.9375c-0.63727 1.0427-2.1232 1.3322-3.2812 1.1719l3.2812-1.1719m14.062 0-2.6433 1.6992-0.40359 4.6289c1.1449-1.5111-0.49758-4.1894 1.6441-5.0618 0.45422-0.18511 0.92227-0.25779 1.4027-0.32878l-1.3317 1.6652-0.45023 3.9965-1.7337 0.66642v0.23438c0.80906-0.18727 2.0576-0.3712 2.4368-1.2245 0.60094-1.3532-0.6982-3.8107 1.0788-4.4005l-0.14133 4.8568-1.7337 1.0026-5.625 1.4062 2.5781-0.9375v-0.23438l-4.2188 0.70312v-0.23438l2.1094-0.46875v-0.23438l-3.2812 0.46875c1.6894-1.2638 4.7459-0.98681 6.1868-2.5083 0.99305-1.0487-0.04875-2.9988 0.51703-4.2234 0.46852-1.0136 2.621-1.3255 3.6087-1.4714m-43.828 0.9375v0.23438l3.0469 0.70312-3.0469-0.9375m29.766 0-1.875 0.70312 1.875-0.70312m-38.906 0.23438-0.23438 0.23438 0.23438-0.23438m7.9688 0.23438v0.23438h0.70312l-0.70312-0.23438m30.938 0.46875v0.23438h-0.70312l0.70312-0.23438m-29.531 1.1719v0.23438l-1.875-0.70312 1.875 0.46875m36.094 1.6406v0.23438h-1.875v0.23438l0.46875 0.23438-3.9844-0.70312v0.23438l2.5781 0.70312v0.23438l-3.2812-0.46875 0.70312-0.70312v-0.23438l-0.70312-0.70312 4.2188 1.1719v-0.23438c-1.3301-0.30771-3.4779-0.65965-4.2188-1.875l6.0938 1.875m-33.75-0.46875v0.23438l3.5156-0.9375-3.5156 0.70312m-3.9844-0.62501c0.18124 0 0.03755 0.1167-0.07812 0.07814l0.07812-0.07814m15 0.62501c-0.41227 1.3949 0.18188 3.1051-0.3757 4.4218-0.56016 1.3225-3.7369 1.845-5.0149 2.1407v0.23438c1.6509-0.16456 4.9922-0.84373 5.8594-2.3438l1.4062 0.9375-1.4062-0.23438v0.23438l1.4062 0.9375-1.4062-0.70312-4.2188 1.4062-1.8684 1.0026-0.24094 4.6224h0.46875c0-1.1979-0.41297-3.3444 0.24094-4.388 0.42305-0.67512 1.4048-0.84145 2.1028-1.0833 1.7362-0.6015 3.4978-1.5484 4.9219 0.08065l-1.4062-0.23438v0.23438l1.1719 0.23438v0.23438l-1.1719-0.23438-3.1399 1.4714-0.51703 4.0885-3.3743 1.4714v0.23438l3.9844-1.1719 0.3757-4.568 2.6712-1.057-2.0348 1.8878-0.45023 3.852-4.7805 1.7602v0.23438l5.1562-1.4844 2.1094-1.0938-1.4062-0.70312h1.6406v3.9844h-0.23438l-1.6409 0.09966-3.281 1.0722v0.23438l2.8125 0.70312 0.30891 4.5893 1.8005 1.2701h0.23438l1.1719-0.46875c-0.84703 1.3645-2.4307 0.12141-3.75 0.35836-2.1145 0.38016-4.2035 1.7803-6.3281 1.9144-1.4834 0.09352-2.9898-0.88476-4.4531-1.1009v0.23438l4.4531 1.2867 6.3281-1.9917 3.75 0.23625c-0.80859 0.88945-1.482 0.64453-2.5781 0.46875v0.23438c0.79336 1.0472 0.52547 2.7619 0.23438 3.9844l4.6875-0.46875v0.23438l-4.2188 0.70312c-0.41227 1.395 0.18188 3.105-0.3757 4.422-0.56016 1.3223-3.7369 1.845-5.0149 2.1405v0.23438c1.6509-0.16453 4.9922-0.84375 5.8594-2.3438l1.4062 0.9375-1.4062-0.23438v0.23438l1.4062 0.9375-1.4062-0.70312-4.2188 1.4062-1.8684 1.0027-0.24094 4.6223h0.46875c0-1.1979-0.41297-3.3445 0.24094-4.388 0.42305-0.67523 1.4048-0.84141 2.1028-1.0833 1.7362-0.60141 3.4978-1.5485 4.9219 0.08062l-1.4062-0.23438v0.23438l1.1719 0.23438v0.23438l-1.1719-0.23438-3.1399 1.4714-0.51703 4.0884-3.3743 1.4714v0.23438l3.9844-1.1719 0.3757-4.568 2.6712-1.057-2.0348 1.8879-0.45023 3.852-4.7805 1.7602v0.23438l5.1562-1.4843 2.1094-1.0938-1.4062-0.70312h1.6406v3.9844h-0.23438l-2.8125 0.46875v0.23438l3.2812-0.23438c0.41227-1.395-0.18188-3.105 0.3757-4.422 0.56016-1.3223 3.7369-1.845 5.0149-2.1405v-0.23438c-1.6509 0.16453-4.9922 0.84375-5.8594 2.3438l-1.4062-0.9375 1.4062 0.23438v-0.23438l-1.4062-0.9375 1.4062 0.70312 4.2188-1.4062 1.8684-1.0027 0.24094-4.6223h-0.46875c0 1.1979 0.41297 3.3445-0.24094 4.388-0.42305 0.67523-1.4048 0.84141-2.1028 1.0833-1.7362 0.60141-3.4978 1.5485-4.9219-0.08062l1.4062 0.23438v-0.23438l-1.1719-0.23438v-0.23438l1.1719 0.23438 3.1399-1.4714 0.51703-4.0884 3.3743-1.4714v-0.23438l-3.9844 1.1719-0.3757 4.568-2.6712 1.057 2.0348-1.8879 0.45023-3.852 4.7805-1.7602v-0.23438l-5.1562 1.4843-2.1094 1.0938 1.4062 0.70312h-1.6406v-3.9844h0.23438l1.6409-0.09961 3.281-1.0723v-0.23438l-2.8125-0.70312-0.30891-4.5893-1.8005-1.2701h-0.23438l-1.1719 0.46875c0.84703-1.3645 2.4307-0.12141 3.75-0.35836 2.1145-0.38016 4.2035-1.7803 6.3281-1.9144 1.4834-0.09352 2.9897 0.88476 4.4531 1.1009v-0.23438l-4.4531-1.2867-6.3281 1.9917-3.75-0.23625c0.80859-0.88945 1.482-0.6443 2.5781-0.46875v-0.23438c-0.79336-1.0472-0.52547-2.7619-0.23438-3.9844l-4.6875 0.46875v-0.23438l4.2188-0.70312c0.41227-1.3949-0.18188-3.1051 0.3757-4.4218 0.56016-1.3225 3.7369-1.845 5.0149-2.1407v-0.23438c-1.6509 0.16456-4.9922 0.84373-5.8594 2.3438l-1.4062-0.9375 1.4062 0.23438v-0.23438l-1.4062-0.9375 1.4062 0.70312 4.2188-1.4062 1.8684-1.0026 0.24094-4.6224h-0.46875c0 1.1979 0.41297 3.3444-0.24094 4.388-0.42305 0.67509-1.4048 0.84145-2.1028 1.0833-1.7362 0.6015-3.4978 1.5484-4.9219-0.08065l1.4062 0.23438v-0.23438l-1.1719-0.23438v-0.23438l1.1719 0.23438 3.1399-1.4714 0.51703-4.0885 3.3743-1.4714v-0.23438l-3.9844 1.1719-0.3757 4.568-2.6712 1.057 2.0348-1.8878 0.45023-3.852 4.7805-1.7602v-0.23438l-5.1562 1.4844-2.1094 1.0938 1.4062 0.70312h-1.6406v-3.9844h0.23438l2.8125-0.46875h-3.2812m-10.078 1.6406-0.23438 4.9219c1.5649-0.33534 0.19594-3.3028 0.87239-4.4271 0.58905-0.97903 3.0089-1.3344 4.0495-1.6667l-4.6875 1.1719m8.6719-1.4062v0.23438h-0.70312l0.70312-0.23438m-11.016 5.8594v0.23438c2.3955-0.27574 0.88207-2.8497 1.5477-4.4218 0.32623-0.77058 1.2497-0.96682 1.968-1.2032-0.80245-0.23726-2.0044 0.04903-2.2692 0.96879-0.46734 1.6229 0.61383 3.4836-1.2464 4.4218m11.016-3.75-2.1094-0.46875v0.23437l2.1094 1.1719-4.6875-1.6406 2.5781 0.23438v-0.23438l-1.1719-0.46875c1.1855-0.24691 2.5852 0.14529 3.2812 1.1719m18.281-0.9375 1.6406 0.46875v0.23437c-0.65086 0.11796-1.7862 0.19887-1.6406-0.70312m-18.281 2.8125-3.75-0.9375v0.23438l3.0469 0.9375h-2.1094v0.23438l0.9375 0.23438v0.23438c-1.4325 0.14088-3.8983-0.34601-4.6875-1.6406l3.75 0.9375v-0.23438c-1.0505-0.11477-3.5111-0.51998-3.75-1.6406l2.8125 0.70312v-0.23438l-2.5781-0.9375c1.5335-0.4174 5.4792 0.71691 6.3281 2.1094m1.875-1.4063 1.4062-0.46875-1.4062 0.46875m22.734 0.46875v0.23438l3.9844-1.1719-3.9844 0.9375m-45.938-0.9375c0 1.3475 0.60176 4.1766-0.9375 4.6875v-4.4531l0.9375-0.23438m39.609 0.07812c0.18117 0 0.0375 0.1167-0.07805 0.07814l0.07805-0.07814m-41.016 0.62501c0 1.3202 0.57356 3.9516-0.9375 4.4531 0-1.3202-0.57356-3.9516 0.9375-4.4531m26.016 0.23438-0.23438 0.23438 0.23438-0.23438m23.438 0.23438v0.23438l1.4062-0.23438h-1.4062m-50.859 0c0 1.3202 0.57356 3.9516-0.9375 4.4531 0-1.3202-0.57356-3.9516 0.9375-4.4531m26.016 6.5625v0.23438c1.1536-0.37538 3.7268-0.735 4.4466-1.7602 1.0648-1.5162-0.83367-3.9764 1.4128-4.8023-2.3191-0.80639-0.89391 3.5663-1.782 4.568-0.87422 0.98583-2.9175 1.1489-4.0774 1.7602m-27.422-6.0938c0.02963 1.4357 0.84504 3.8752-0.9375 4.4531 0-1.3202-0.57356-3.9516 0.9375-4.4531m-1.4062 0.23438c0 1.3984 0.59511 4.0714-0.9375 4.6875v-4.4531l0.9375-0.23438m23.672 1.1719v0.23438h-1.875c-0.14365 0.99134-1.2847 0.363-1.6406-0.23438l1.6406 0.23438v-0.23438l-1.6406-0.70312 3.5156 0.70312m14.531 0.23438-0.23438 0.23438 0.23438-0.23438m1.6406 0.46875v0.23438l-1.875 0.46875 1.875-0.70312m-19.219 0.23438-0.23438 0.23438 0.23438-0.23438m20.625 0.23438v0.23438l-3.2812 0.9375c0.65344-1.072 2.096-1.3506 3.2812-1.1719m-12.656 0c-1.1147 0.49416-3.495 0.73884-4.2122 1.7602-1.0648 1.5162 0.83367 3.9764-1.4128 4.8023v0.23438c2.5418-0.29257 0.68391-3.0853 1.6472-4.6224 0.70383-1.1232 3.0738-1.3402 4.2122-1.9401l-0.23438-0.23438m14.297 0.46875v0.23438l-4.9219 1.4062c0.88078-1.3331 3.4195-1.8509 4.9219-1.6406m-28.359 1.4062v0.23438l2.3438-0.46875-2.3438 0.23438m44.062-0.46875v4.4531l-0.9375 0.23438c0-1.3984-0.59508-4.0714 0.9375-4.6875m-17.812 0.70312v0.23438l2.3438-0.46875-2.3438 0.23438m16.406-0.23438c0 1.3202 0.57352 3.9516-0.9375 4.4531-0.02953-1.4357-0.84492-3.8752 0.9375-4.4531m-1.4062 0.46875c0 1.3202 0.57352 3.9516-0.9375 4.4531 0-1.3202-0.57352-3.9516 0.9375-4.4531m-36.094 0.23438c-0.65348 1.072-2.0961 1.3506-3.2812 1.1719l3.2812-1.1719m34.688 0.23438c0 1.3202 0.57352 3.9516-0.9375 4.4531 0-1.3202-0.57352-3.9516 0.9375-4.4531m-42.422 0.46875v0.23438l4.4531 1.418 1.833 0.99663 0.65212 4.419 6.4145 2.6393 0.47531 4.1208-2.8125 0.70312v0.23438l3.5156-0.9375v-0.23438h-0.70312l-0.24094-4.2886-6.4145-2.6278-0.51722-4.2627-1.7336-0.99663-4.9219-1.418m41.016 0v4.4531l-0.9375 0.23438c0-1.3475-0.60188-4.1766 0.9375-4.6875m-33.281 0.23438-1.875 0.70312 1.875-0.70312m-9.1406 0.23438v0.23438l4.4531 1.4187 1.8685 1.023 0.24089 4.5895 4.9219 1.4515 1.8684 1.1578 0.24094 3.2501h0.23438l-0.24094-3.8205-6.4145-2.6271-0.51722-4.2625-1.7336-0.96426-4.9219-1.4505m26.719 0-0.23438 0.23438 0.23438-0.23438m1.6406 0-0.24094 4.388-3.9778 1.7057v0.23438l4.6875-1.4062 0.23438-4.9219h-0.70312m-1.4062 1.1719-1.6406-0.23438v0.23438l1.6406 0.70312-3.5156-0.70312v-0.23438h1.875c0.14367-0.99131 1.2846-0.363 1.6406 0.23438m0.70312 4.6875v0.23438c0.68391-0.10111 1.6676-0.20297 2.1028-0.82266 1.0912-1.5536-0.72703-3.723 1.4128-4.8023-2.1987-0.76453-1.0929 3.1132-1.5476 4.1875-0.32625 0.77058-1.2499 0.96682-1.968 1.2032m-18.516-5.1562-0.23438 0.23438 0.23438-0.23438m17.578 2.3438-3.75-0.9375v0.23438c1.0505 0.11477 3.5112 0.51998 3.75 1.6406l-2.8125-0.70312v0.23438l2.5781 0.9375c-1.5335 0.4174-5.4792-0.71691-6.3281-2.1094l3.75 0.9375v-0.23438l-3.0469-0.9375h2.1094v-0.23438l-0.9375-0.23438c1.2457-0.66539 3.9701 0.2292 4.6875 1.4062m-28.125-1.6406v0.23438c1.2666 0.41212 4.2119 0.7931 4.7805 2.1405 0.49648 1.1766-0.40179 2.9776 0.38231 4.0231 0.39349 0.52453 1.2827 0.67219 1.8685 0.86766 1.6156 0.5393 3.2273 1.178 4.9219 1.4062v3.0469h0.46875l-0.24089-2.8823-1.8685-0.86766-4.3786-1.6395-0.68468-4.389-1.4994-0.86768-3.7498-1.0726m-6.5625 1.6406v0.23438l1.4062-0.23438h-1.4062m-0.46875 1.1719v0.23438l3.9844-1.1719-3.9844 0.9375m25.547-1.1719-0.23438 0.23438 0.23438-0.23438m7.7344 1.875-2.5781-0.23438v0.23438l1.1719 0.46875c-1.1855 0.24689-2.5852-0.14529-3.2812-1.1719l2.1094 0.46875v-0.23438l-2.1094-1.1719 4.6875 1.6406m-6.7969-1.1719-1.1719 0.46875v0.23438l1.1719-0.70312m-16.172 0.31249c0.18127 0 0.03755 0.1167-0.07812 0.07814l0.07812-0.07814m0.23438 1.0938-1.875-0.46875c0.78148-0.48286 1.4006-0.30387 1.875 0.46875m18.75 0.9375v0.23438h-0.70312l0.70312-0.23438m5.3906 1.1719v0.23438l3.5156-0.9375-3.5156 0.70312m-7.9688-0.23438 0.23438 3.5156-1.6406 0.23438 1.4062-1.4062-1.4062 0.46875 0.70312-0.70312v-0.23438l-0.70312-0.70312 1.1719 0.70312 0.23438-1.4062-2.5781 0.46875 2.5781-0.9375m15.469 0.07805c0.18117 0 0.0375 0.11672-0.07805 0.07828l0.07805-0.07828m-36.562 0.3907v0.23438c1.0452 0.29672 2.8981 0.54328 3.3742 1.6718 0.58959 1.3973-0.67029 3.5203 1.3133 3.9532v-0.23438h-0.70312l-0.24089-4.2886-3.7435-1.3364m36.797 0.70312-1.875-0.46875c0.76336-0.31078 1.3931-0.21328 1.875 0.46875m-26.953-0.23438v0.23438l4.681 1.9402 0.24324 1.8087-0.23672 1.4074v0.23438l1.4062-0.23438v-0.23438h-0.70312l-0.14133-3.2102-1.4995-0.85453-3.7498-1.0915m33.984 9.1406-2.3372-1.0027-0.24094-2.2786v-5.3906c1.2938 0.28219 1.1714 1.1841 1.1719 2.3438 7.03e-4 1.4426-0.30305 3.2773 0.07453 4.6739 0.19758 0.73102 0.95367 1.0399 1.3317 1.6542m-37.734-8.4375v0.23438h-0.70312l0.70312-0.23438m1.1719 0.46875v0.23438l-1.875 0.46875 1.875-0.70312m24.844-0.23438v0.23438l3.0469 0.70312v-0.23438l-3.0469-0.70312m11.719 7.2656h-0.9375v-7.2656c1.0788 0.43383 0.93703 1.2966 0.9375 2.3438v4.9219m-42.891 1.6406c-1.2937-0.28219-1.1714-1.1841-1.1719-2.3438-6.56e-4 -1.4426 0.30312-3.2773-0.07451-4.6739-0.1976-0.73102-0.95362-1.0399-1.3317-1.6542l2.3372 1.0027 0.24089 2.2786v5.3906m34.687-8.6719v0.23438h0.70312l-0.70312-0.23438m-26.953 0.46875v0.23438l-3.2812 0.9375c0.63738-1.0427 2.1232-1.3322 3.2812-1.1719m35.859-0.23438-0.23438 0.23438 0.23438-0.23438m-34.453 0.70312v0.23438l-4.6875 1.4062c0.76643-1.2574 3.2904-1.8513 4.6875-1.6406m36.094-0.23438-0.23438 0.46875h1.6406v0.23438l-3.2812 1.1719 1.6406-1.1719v-0.23438l-1.6406 0.46875c0.32016-0.91031 0.98062-0.9157 1.875-0.9375m-46.875 0.23438v7.2656c-1.0789-0.43383-0.93703-1.2966-0.9375-2.3438v-4.9219h0.9375m-5.8594 1.875v0.23438l3.0469-0.70312-3.0469 0.46875m12.891 0.46875v0.23438l4.2188-1.1719-4.2188 0.9375m-14.062-0.9375v0.23438h0.70312l-0.70312-0.23438m31.172 1.4062v0.23438h0.70312l0.24094 4.2886 6.4146 2.6278 0.51703 4.2628 1.7337 0.99656 4.9219 1.418v-0.23438l-4.4531-1.418-1.833-0.99656-0.65203-4.4191-6.4146-2.6393-0.47531-4.1208 2.8125-0.70312-3.5156 0.70312m-31.406 0.46875v0.23438l4.2187-1.1719-4.2187 0.9375m30.234-0.23438v0.23438l-2.3438-0.23438h2.3438m3.9844-0.23438v0.23438h0.70312l0.14133 3.2102 1.4995 0.85453 3.7498 1.0915v-0.23438l-4.6809-1.9402-0.24328-1.8087 0.23672-1.4074h-1.4062m19.687 0.9375v0.23438l4.2188-1.1719-4.2188 0.9375m-8.4375-0.9375v0.23438h0.70312l0.24094 4.2886 3.7434 1.3364v-0.23438c-1.0453-0.29672-2.898-0.54328-3.3743-1.6718-0.58945-1.3973 0.67031-3.5203-1.3132-3.9532m-11.953 0.23438 0.24094 3.8205 6.4146 2.6271 0.51703 4.2626 1.7337 0.96422 4.9219 1.4505v-0.23438l-4.4531-1.4187-1.8684-1.023-0.24094-4.5895-4.9219-1.4515-1.8684-1.1578-0.47531-3.2501m2.8125 0 0.24094 2.8823 1.8684 0.86766 4.3786 1.6395 0.68461 4.3889 1.4995 0.86789 3.7498 1.0725v-0.23438c-1.2666-0.41203-4.212-0.79312-4.7805-2.1405-0.49641-1.1766 0.40195-2.9775-0.38227-4.023-0.39352-0.52453-1.2827-0.67219-1.8684-0.86766-1.6155-0.5393-3.2273-1.178-4.9219-1.4062v-3.0469h-0.46875m3.2812 1.6406v0.23438l4.2188-1.1719-4.2188 0.9375m14.062 0v0.23438l3.0469-0.70312-3.0469 0.46875m-47.812-0.23438-1.6406 1.1719v0.23438l1.6406-0.46875c-0.32009 0.91031-0.98053 0.9157-1.875 0.9375l0.23438-0.46875h-1.6406v-0.23438l3.2812-1.1719m38.906 0c-0.76641 1.2574-3.2904 1.8513-4.6875 1.6406l4.6875-1.6406m12.422 0v0.23438h0.70312l-0.70312-0.23438m-26.719 0.9375-1.4062 1.4062 1.4062-0.46875-0.70312 0.70312v0.23438l0.70312 0.70312-1.1719-0.70312-0.23438 1.4062 2.5781-0.46875v0.23438l-2.5781 0.70312-0.23438-3.5156 1.6406-0.23438m14.297 0c-0.63727 1.0427-2.1232 1.3322-3.2812 1.1719l3.2812-1.1719m-29.766 0.9375v0.23438l3.0469 0.70312-3.0469-0.9375m29.766 0-1.875 0.70312 1.875-0.70312m-38.906 0.23438-0.23438 0.23438 0.23438-0.23438m7.9688 0.23438v0.23438h0.70312l-0.70312-0.23438m30.938 0.46875v0.23438h-0.70312l0.70312-0.23438m-29.531 1.1719v0.23438l-1.875-0.70312 1.875 0.46875m2.3438 1.1719v0.23438l3.5156-0.9375-3.5156 0.70312m-3.9844-0.62508 0.07812 0.07828c-0.11566 0.03844-0.25938-0.07828-0.07812-0.07828m4.9219 2.2657-0.23438 4.9219c1.5649-0.33539 0.19596-3.3028 0.87239-4.4271 0.58905-0.97898 3.0089-1.3343 4.0495-1.6666l-4.6875 1.1719m8.6719-1.4062v0.23438h-0.70312l0.70312-0.23438m-11.016 5.8594v0.23438c2.3955-0.27562 0.88207-2.8498 1.5477-4.422 0.32623-0.77039 1.2497-0.9668 1.968-1.203-0.80245-0.23719-2.0044 0.04898-2.2692 0.96867-0.46734 1.623 0.61383 3.4838-1.2464 4.422m11.016-3.75-2.1094-0.46875v0.23438l2.1094 1.1719-4.6875-1.6406 2.5781 0.23438v-0.23438l-1.1719-0.46875c1.1855-0.2468 2.5852 0.14531 3.2812 1.1719m18.281-0.9375 1.6406 0.46875v0.23438c-0.65086 0.11789-1.7862 0.19898-1.6406-0.70312m-18.281 2.8125-3.75-0.9375v0.23438l3.0469 0.9375h-2.1094v0.23438l0.9375 0.23438v0.23438c-1.4325 0.14086-3.8983-0.34594-4.6875-1.6406l3.75 0.9375v-0.23438c-1.0505-0.11484-3.5111-0.52008-3.75-1.6406l2.8125 0.70312v-0.23438l-2.5781-0.9375c1.5335-0.41742 5.4792 0.71695 6.3281 2.1094m1.875-1.4062 1.4062-0.46875-1.4062 0.46875m22.734 0.46875v0.23438l3.9844-1.1719-3.9844 0.9375m-45.938-0.9375c0 1.3477 0.60176 4.1766-0.9375 4.6875v-4.4531l0.9375-0.23438m39.609 0.07805c0.18117 0 0.0375 0.11672-0.07805 0.07828l0.07805-0.07828m-41.016 0.62508c0 1.3202 0.57356 3.9516-0.9375 4.4531 0-1.3202-0.57356-3.9516 0.9375-4.4531m26.016 0.23438-0.23438 0.23438 0.23438-0.23438m23.438 0.23438v0.23438l1.4062-0.23438h-1.4062m-50.859 0c0 1.3202 0.57356 3.9516-0.9375 4.4531 0-1.3202-0.57356-3.9516 0.9375-4.4531m26.016 6.5625v0.23438c1.1536-0.37547 3.7268-0.735 4.4466-1.7602 1.0648-1.5162-0.83367-3.9764 1.4128-4.8023-2.3191-0.80648-0.89391 3.5662-1.782 4.568-0.87422 0.98578-2.9175 1.1489-4.0774 1.7602m-27.422-6.0938c0.02963 1.4358 0.84504 3.8752-0.9375 4.4531 0-1.3202-0.57356-3.9516 0.9375-4.4531m-1.4062 0.23438c0 1.3983 0.59511 4.0713-0.9375 4.6875v-4.4531l0.9375-0.23438m23.672 1.1719v0.23438h-1.875c-0.14365 0.99141-1.2847 0.36305-1.6406-0.23438l1.6406 0.23438v-0.23438l-1.6406-0.70312 3.5156 0.70312m14.531 0.23438-0.23438 0.23438 0.23438-0.23438m1.6406 0.46875v0.23438l-1.875 0.46875 1.875-0.70312m-19.219 0.23438-0.23438 0.23438 0.23438-0.23438m20.625 0.23438v0.23438l-3.2812 0.9375c0.65344-1.072 2.096-1.3505 3.2812-1.1719m-12.656 0c-1.1147 0.49406-3.495 0.73875-4.2122 1.7602-1.0648 1.5162 0.83367 3.9764-1.4128 4.8023v0.23438c2.5418-0.2925 0.68391-3.0853 1.6472-4.6223 0.70383-1.1234 3.0738-1.3404 4.2122-1.9402l-0.23438-0.23438m-14.062 1.875v0.23438l2.3438-0.46875-2.3438 0.23438m44.062-0.46875v4.4531l-0.9375 0.23438c0-1.3983-0.59508-4.0713 0.9375-4.6875m-38.906 0.23438c-0.88085 1.3331-3.4196 1.8509-4.9219 1.6406l4.9219-1.6406m21.094 0.46875v0.23438l2.3438-0.46875-2.3438 0.23438m16.406-0.23438c0 1.3202 0.57352 3.9516-0.9375 4.4531-0.02953-1.4358-0.84492-3.8752 0.9375-4.4531m-1.4062 0.46875c0 1.3202 0.57352 3.9516-0.9375 4.4531 0-1.3202-0.57352-3.9516 0.9375-4.4531m-36.094 0.23438c-0.65348 1.072-2.0961 1.3505-3.2812 1.1719l3.2812-1.1719m34.688 0.23438c0 1.3202 0.57352 3.9516-0.9375 4.4531 0-1.3202-0.57352-3.9516 0.9375-4.4531m-1.4062 0.46875v4.4531l-0.9375 0.23438c0-1.3477-0.60164-4.1766 0.9375-4.6875m-33.281 0.23438-1.875 0.70312 1.875-0.70312m17.578 0.23438-0.23438 0.23438 0.23438-0.23438m1.6406 0-0.24094 4.388-3.9778 1.7058v0.23438l4.6875-1.4062 0.23438-4.9219h-0.70312m-1.4062 1.1719-1.6406-0.23438v0.23438l1.6406 0.70312-3.5156-0.70312v-0.23438h1.875c0.14367-0.99141 1.2846-0.36305 1.6406 0.23438m0.70312 4.6875v0.23438c0.68391-0.10102 1.6676-0.20297 2.1028-0.82266 1.0912-1.5537-0.72703-3.723 1.4128-4.8023-2.1987-0.76453-1.0929 3.1132-1.5476 4.1876-0.32625 0.77039-1.2499 0.9668-1.968 1.203m-18.516-5.1562-0.23438 0.23438 0.23438-0.23438m17.578 2.3438-3.75-0.9375v0.23438c1.0505 0.11484 3.5112 0.52008 3.75 1.6406l-2.8125-0.70312v0.23438l2.5781 0.9375c-1.5335 0.41742-5.4792-0.71695-6.3281-2.1094l3.75 0.9375v-0.23438l-3.0469-0.9375h2.1094v-0.23438l-0.9375-0.23438c1.2457-0.66539 3.9701 0.22922 4.6875 1.4062m-30.703-1.4062-2.5781 0.9375v0.23438l4.2188-0.70312v0.23438l-2.1094 0.46875v0.23438l3.2812-0.46875v0.23438c-1.4094 0.45867-2.8128 0.93703-4.2188 1.4062-0.63044 0.21047-1.4932 0.36633-1.968 0.86766-0.99312 1.0488 0.04863 2.9988-0.51722 4.2234-0.46833 1.0137-2.6209 1.3256-3.6086 1.4714l2.6432-1.6992 0.40364-4.6289c-1.1448 1.511 0.49756 4.1895-1.6441 5.0618-0.45437 0.18516-0.92242 0.25781-1.4028 0.32883l1.3317-1.6652 0.4503-3.9966 1.7336-0.66633v-0.23438c-0.80904 0.18727-2.0577 0.37125-2.4367 1.2246-0.60105 1.353 0.69814 3.8107-1.0789 4.4004l0.14142-4.8567 1.7336-1.0027 5.625-1.4062m-3.9844 1.4062v0.23438l1.4062-0.23438h-1.4062m8.2031 0-6.1867 2.5083-0.51722 4.2234-3.3742 1.4714v0.23438c1.0602-0.24539 3.3534-0.59109 3.843-1.6934 0.53273-1.1993-0.3908-2.9454 0.38231-4.0465 0.38684-0.55102 1.2706-0.70102 1.8685-0.9007 1.5959-0.53297 3.722-1.7358 5.3906-1.3282l-6.1867 2.5083-0.51722 4.2241-1.7336 1.0291-4.6875 1.3791 0.9375-0.70312v-0.23438h-0.9375l3.9779-2.2076 0.38231-4.0554 1.7336-1.0027 5.625-1.4062m-8.6719 1.1719v0.23438l3.9844-1.1719-3.9844 0.9375m25.547-1.1719-0.23438 0.23438 0.23438-0.23438m7.7344 1.875-2.5781-0.23438v0.23438l1.1719 0.46875c-1.1855 0.2468-2.5852-0.14531-3.2812-1.1719l2.1094 0.46875v-0.23438l-2.1094-1.1719 4.6875 1.6406m-6.7969-1.1719-1.1719 0.46875v0.23438l1.1719-0.70312m-16.172 0.31242c0.18127 0 0.03755 0.11672-0.07812 0.07828l0.07812-0.07828m0.23438 1.0938-1.875-0.46875c0.78148-0.48281 1.4006-0.30398 1.875 0.46875m0 0.23438-0.70312 0.70312v0.23438l0.70312 0.70312-4.2187-1.1719v0.23438c1.3301 0.30773 3.4779 0.65953 4.2187 1.875l-6.0938-1.875v-0.23438h1.875v-0.23438l-0.46875-0.23438 3.9844 0.70312v-0.23438l-2.5781-0.70312 3.2812 0.23438m18.75 0.70312v0.23438h-0.70312l0.70312-0.23438m5.3906 1.1719v0.23438l3.5156-0.9375-3.5156 0.70312m7.5-0.15633c0.18117 0 0.0375 0.11672-0.07805 0.07828l0.07805-0.07828m0.23438 1.0938-1.875-0.46875c0.76336-0.31078 1.3931-0.21328 1.875 0.46875m-30.703 0.46875v0.23438h-0.70312l0.70312-0.23438m1.1719 0.46875v0.23438l-1.875 0.46875 1.875-0.70312m24.844-0.23438v0.23438l3.0469 0.70312v-0.23438l-3.0469-0.70312m3.5156 0.23438v0.23438h0.70312l-0.70312-0.23438m-26.953 0.46875v0.23438l-3.2812 0.9375c0.63738-1.0427 2.1232-1.3322 3.2812-1.1719m35.859-0.23438-0.23438 0.23438 0.23438-0.23438m-34.453 0.70312v0.23438l-4.6875 1.4062c0.76643-1.2574 3.2904-1.8513 4.6875-1.6406m36.094-0.23438-0.23438 0.46875h1.6406v0.23438l-3.2812 1.1719 1.6406-1.1719v-0.23438l-1.6406 0.46875c0.32016-0.91031 0.98062-0.9157 1.875-0.9375m-34.453 0.70312v0.23438l-6.3281 1.875 2.1094-1.1904 4.2188-0.91898m37.266 0.23438v0.23438l-4.6875 1.6406c0.52055-1.4962 3.2784-1.845 4.6875-1.875m-56.719 0.70312v0.23438h0.70312l-0.70312-0.23438m36.797 1.4062v0.23438h1.875z" opacity="0.2" fill="#f5d862"/>
</svg>
