<svg width="64" height="64" version="1.1" viewBox="0 0 16.933 16.933" xmlns="http://www.w3.org/2000/svg">
 <path d="m2.8148 0c-1.5595-3.1333e-16 -2.8148 1.4126-2.8148 3.1672v7.2249c0 1.7546 1.2553 3.1672 2.8148 3.1672h8c3.5488-0.25512 4.8114 1.5798 6.1185 3.374l-0.038757-6.5226h-5.17e-4c3.1e-5 -0.00615 5.17e-4 -0.012503 5.17e-4 -0.018603v-7.2249c0-1.7546-1.2553-3.1672-2.8148-3.1672h-11.265zm-5.168e-4 1.0842h11.266c0.88355 0 1.7301 0.86241 1.7301 2.0836v7.2249c0 0.0089 5e-6 0.010836 0 0.011886v0.005684l0.021705 3.7011c-1.1246-1.0096-2.5725-1.8076-5.0627-1.6366h0.044959l-0.078031 0.002067c0.011159-8.02e-4 0.021955-0.001304 0.033072-0.002067h-7.9551c-0.88448 0-1.7301-0.86086-1.7301-2.082v-7.2249c0-1.2212 0.84658-2.0836 1.7301-2.0836z" fill="#f3ca20"/>
 <g transform="translate(-.13344)" stroke-width="0">
  <path d="m8.1366 11.106v-3.302l0.2159 0.5842-3.7719-6.1722h1.0033l3.3147 5.4229h-0.5334l3.3147-5.4229h0.9398l-3.7719 6.1722 0.2159-0.5842v3.302z"/>
 </g>
</svg>
